<?xml version="1.0" encoding="utf-8"?>
<!-- Generator: Adobe Illustrator 16.0.0, SVG Export Plug-In . SVG Version: 6.00 Build 0)  -->
<!DOCTYPE svg PUBLIC "-//W3C//DTD SVG 1.1//EN" "http://www.w3.org/Graphics/SVG/1.1/DTD/svg11.dtd">
<svg version="1.1" id="Moon" xmlns="http://www.w3.org/2000/svg" xmlns:xlink="http://www.w3.org/1999/xlink" x="0px" y="0px"
	 width="512px" height="512px" viewBox="0 0 512 512" enable-background="new 0 0 512 512" xml:space="preserve">
<circle id="Background" fill="#323653" cx="256" cy="256" r="255.931"/>
<path id="Shadow" opacity="0.1" d="M377.676,158.512L164.399,383.645L290.4,509.646c93.279-12.724,175.996-76.616,208.115-171.873
	c5.015-14.875,8.578-29.887,10.78-44.887L377.676,158.512z"/>
<g id="Star_1_">
	<g>
		<circle fill="#E3DFF0" cx="228.159" cy="30.494" r="5.416"/>
		<polygon fill="#E3DFF0" points="239.947,25.753 227.728,29.42 216.372,35.234 228.59,31.565 		"/>
		<polygon fill="#E3DFF0" points="223.418,18.705 227.086,30.924 232.9,42.28 229.231,30.062 		"/>
	</g>
	<g>
		<circle fill="#E3DFF0" cx="377.676" cy="429.989" r="5.415"/>
		<polygon fill="#E3DFF0" points="389.464,425.248 377.245,428.916 365.889,434.729 378.107,431.062 		"/>
		<polygon fill="#E3DFF0" points="372.936,418.2 376.604,430.42 382.417,441.774 378.749,429.558 		"/>
	</g>
	<g>
		<circle fill="#E3DFF0" cx="32.039" cy="335.942" r="5.415"/>
		<polygon fill="#E3DFF0" points="43.827,331.201 31.609,334.869 20.252,340.683 32.471,337.016 		"/>
		<polygon fill="#E3DFF0" points="27.299,324.153 30.967,336.374 36.78,347.729 33.112,335.511 		"/>
	</g>
	<g id="Star">
		<circle fill="#E3DFF0" cx="421.408" cy="91.689" r="8.078"/>
		<polygon fill="#E3DFF0" points="438.993,84.617 420.764,90.088 403.825,98.76 422.052,93.288 		"/>
		<polygon fill="#E3DFF0" points="414.338,74.102 419.808,92.332 428.48,109.271 423.008,91.045 		"/>
	</g>
</g>
<g>
	<g>
		<path fill="#F6863C" d="M209.548,404.406c0,0-0.902,1.563-1.384,3.713c4.639,3.125,14.246,5.146,21.244,6.186
			c1.129-2.687,0.737-3.999,0.737-3.999S218.411,408.682,209.548,404.406z"/>
		<path fill="#F6863C" d="M269.494,102.331c0,0,1.047-1.911,1.256-4.198c-8.352-0.938-26.6-0.373-38.218,1.757
			c-1.115,3.093,2.01,5.968,2.01,5.968S253.989,102.176,269.494,102.331z"/>
		<circle fill="#FCC59C" cx="256" cy="256.826" r="156.438"/>
		<g>
			<circle fill="#F89F67" cx="211.672" cy="239.294" r="29.286"/>
			<path fill="#F6863C" d="M190.218,241.793c0-14.978,12.142-27.12,27.119-27.12c6.348,0,12.182,2.187,16.802,5.841
				c-5.372-6.421-13.441-10.506-22.467-10.506c-16.174,0-29.286,13.111-29.286,29.286s13.112,29.286,29.286,29.286
				c0.417,0,0.832-0.014,1.245-0.031C200.042,266.438,190.218,255.264,190.218,241.793z"/>
		</g>
		<g>
			<circle fill="#F89F67" cx="302.108" cy="305.506" r="36.631"/>
			<path fill="#F6863C" d="M275.274,308.632c0-18.732,15.185-33.92,33.92-33.92c7.939,0,15.236,2.734,21.016,7.306
				c-6.719-8.031-16.812-13.143-28.102-13.143c-20.23,0-36.631,16.4-36.631,36.631c0,20.231,16.4,36.631,36.631,36.631
				c0.521,0,1.041-0.019,1.557-0.039C287.562,339.457,275.274,325.481,275.274,308.632z"/>
		</g>
		<g>
			<circle fill="#F89F67" cx="298.326" cy="174.514" r="17.028"/>
			<path fill="#F6863C" d="M285.852,175.967c0-8.708,7.061-15.768,15.769-15.768c3.69,0,7.082,1.272,9.77,3.396
				c-3.125-3.733-7.816-6.108-13.063-6.108c-9.403,0-17.028,7.624-17.028,17.027s7.625,17.028,17.028,17.028
				c0.242,0,0.482-0.009,0.723-0.019C291.564,190.296,285.852,183.799,285.852,175.967z"/>
		</g>
		<g>
			<circle fill="#F89F67" cx="365.883" cy="218.207" r="17.028"/>
			<path fill="#F6863C" d="M353.409,219.66c0-8.708,7.059-15.768,15.767-15.768c3.691,0,7.083,1.271,9.77,3.396
				c-3.122-3.733-7.814-6.108-13.063-6.108c-9.403,0-17.026,7.623-17.026,17.027c0,9.404,7.623,17.028,17.026,17.028
				c0.244,0,0.484-0.009,0.725-0.019C359.12,233.989,353.409,227.493,353.409,219.66z"/>
		</g>
		<g>
			<circle fill="#F89F67" cx="357.409" cy="163.079" r="8.473"/>
			<path fill="#F6863C" d="M351.203,163.801c0-4.333,3.513-7.846,7.845-7.846c1.838,0,3.524,0.632,4.862,1.69
				c-1.555-1.857-3.89-3.04-6.5-3.04c-4.681,0-8.475,3.793-8.475,8.473c0,4.679,3.794,8.473,8.475,8.473
				c0.121,0,0.24-0.004,0.359-0.009C354.046,170.931,351.203,167.699,351.203,163.801z"/>
		</g>
		<g>
			<circle fill="#F89F67" cx="184.589" cy="163.079" r="18.927"/>
			<path fill="#F6863C" d="M170.724,164.694c0-9.68,7.847-17.526,17.527-17.526c4.102,0,7.872,1.413,10.858,3.774
				c-3.471-4.149-8.687-6.79-14.52-6.79c-10.453,0-18.927,8.473-18.927,18.927c0,10.453,8.474,18.926,18.927,18.926
				c0.27,0,0.537-0.009,0.804-0.02C177.073,180.62,170.724,173.399,170.724,164.694z"/>
		</g>
		<g>
			<circle fill="#F89F67" cx="165.663" cy="339.817" r="10.852"/>
			<path fill="#F6863C" d="M157.713,340.742c0-5.55,4.499-10.049,10.049-10.049c2.352,0,4.514,0.812,6.226,2.165
				c-1.99-2.38-4.981-3.893-8.325-3.893c-5.993,0-10.852,4.856-10.852,10.852c0,5.992,4.858,10.852,10.852,10.852
				c0.155,0,0.308-0.006,0.461-0.012C161.354,349.874,157.713,345.734,157.713,340.742z"/>
		</g>
		<g>
			
				<ellipse transform="matrix(-0.7909 0.6119 -0.6119 -0.7909 850.1026 452.3411)" fill="#F89F67" cx="347.769" cy="371.41" rx="10.852" ry="7.172"/>
			<path fill="#F6863C" d="M353.681,366.062c2.245,2.901,0.506,8.005-3.884,11.401c-1.861,1.439-3.897,2.339-5.799,2.678
				c2.538,0.027,5.514-1.012,8.159-3.06c4.739-3.668,6.617-9.178,4.194-12.312c-2.423-3.132-8.232-2.699-12.973,0.969
				c-0.121,0.093-0.24,0.19-0.359,0.287C347.11,363.516,351.661,363.453,353.681,366.062z"/>
		</g>
		<g>
			
				<ellipse transform="matrix(-0.3601 0.9329 -0.9329 -0.3601 381.3905 208.8568)" fill="#F89F67" cx="119.063" cy="235.235" rx="10.852" ry="7.172"/>
			<path fill="#F6863C" d="M121.355,227.599c3.421,1.32,4.574,6.588,2.577,11.766c-0.847,2.194-2.125,4.018-3.576,5.292
				c2.185-1.291,4.193-3.72,5.398-6.841c2.158-5.591,0.913-11.278-2.783-12.706c-3.694-1.426-8.439,1.951-10.599,7.542
				c-0.056,0.144-0.107,0.289-0.159,0.433C114.414,228.82,118.277,226.411,121.355,227.599z"/>
		</g>
	</g>
	<path opacity="0.1" d="M281.128,102.408c30.3,32.516,49.082,77.671,49.082,127.598c0,84.545-53.846,155.413-126.306,174.363
		c16.297,5.754,33.828,8.896,52.095,8.896c86.399,0,156.438-70.039,156.438-156.438
		C412.438,178.984,355.578,114.431,281.128,102.408z"/>
</g>
</svg>
